<svg id="visual" viewBox="0 0 900 300" width="900" height="300" xmlns="http://www.w3.org/2000/svg" xmlns:xlink="http://www.w3.org/1999/xlink" version="1.1"><rect x="0" y="0" width="900" height="300" fill="#001220"></rect><path d="M0 119L21.5 112C43 105 86 91 128.8 91.5C171.7 92 214.3 107 257.2 114.8C300 122.7 343 123.3 385.8 120C428.7 116.7 471.3 109.3 514.2 106C557 102.7 600 103.3 642.8 99.5C685.7 95.7 728.3 87.3 771.2 85.2C814 83 857 87 878.5 89L900 91L900 0L878.5 0C857 0 814 0 771.2 0C728.3 0 685.7 0 642.8 0C600 0 557 0 514.2 0C471.3 0 428.7 0 385.8 0C343 0 300 0 257.2 0C214.3 0 171.7 0 128.8 0C86 0 43 0 21.5 0L0 0Z" fill="#b24542"></path><path d="M0 81L21.5 82.3C43 83.7 86 86.3 128.8 83.5C171.7 80.7 214.3 72.3 257.2 69.3C300 66.3 343 68.7 385.8 70.8C428.7 73 471.3 75 514.2 75.2C557 75.3 600 73.7 642.8 76C685.7 78.3 728.3 84.7 771.2 87.8C814 91 857 91 878.5 91L900 91L900 0L878.5 0C857 0 814 0 771.2 0C728.3 0 685.7 0 642.8 0C600 0 557 0 514.2 0C471.3 0 428.7 0 385.8 0C343 0 300 0 257.2 0C214.3 0 171.7 0 128.8 0C86 0 43 0 21.5 0L0 0Z" fill="#c55846"></path><path d="M0 44L21.5 49C43 54 86 64 128.8 68.8C171.7 73.7 214.3 73.3 257.2 69.3C300 65.3 343 57.7 385.8 57.8C428.7 58 471.3 66 514.2 67.5C557 69 600 64 642.8 64C685.7 64 728.3 69 771.2 71.7C814 74.3 857 74.7 878.5 74.8L900 75L900 0L878.5 0C857 0 814 0 771.2 0C728.3 0 685.7 0 642.8 0C600 0 557 0 514.2 0C471.3 0 428.7 0 385.8 0C343 0 300 0 257.2 0C214.3 0 171.7 0 128.8 0C86 0 43 0 21.5 0L0 0Z" fill="#d76b49"></path><path d="M0 28L21.5 29.7C43 31.3 86 34.7 128.8 39C171.7 43.3 214.3 48.7 257.2 50.7C300 52.7 343 51.3 385.8 50.5C428.7 49.7 471.3 49.3 514.2 46.7C557 44 600 39 642.8 37.3C685.7 35.7 728.3 37.3 771.2 36.8C814 36.3 857 33.7 878.5 32.3L900 31L900 0L878.5 0C857 0 814 0 771.2 0C728.3 0 685.7 0 642.8 0C600 0 557 0 514.2 0C471.3 0 428.7 0 385.8 0C343 0 300 0 257.2 0C214.3 0 171.7 0 128.8 0C86 0 43 0 21.5 0L0 0Z" fill="#e8804c"></path><path d="M0 16L21.5 19C43 22 86 28 128.8 30C171.7 32 214.3 30 257.2 26.5C300 23 343 18 385.8 17C428.7 16 471.3 19 514.2 22.8C557 26.7 600 31.3 642.8 31.7C685.7 32 728.3 28 771.2 25.3C814 22.7 857 21.3 878.5 20.7L900 20L900 0L878.5 0C857 0 814 0 771.2 0C728.3 0 685.7 0 642.8 0C600 0 557 0 514.2 0C471.3 0 428.7 0 385.8 0C343 0 300 0 257.2 0C214.3 0 171.7 0 128.8 0C86 0 43 0 21.5 0L0 0Z" fill="#f7954f"></path></svg>