<svg id="visual" viewBox="0 0 900 300" width="900" height="300" xmlns="http://www.w3.org/2000/svg" xmlns:xlink="http://www.w3.org/1999/xlink" version="1.1"><rect x="0" y="0" width="900" height="300" fill="#001220"></rect><path d="M0 76L21.5 83C43 90 86 104 128.8 105.5C171.7 107 214.3 96 257.2 88.7C300 81.3 343 77.7 385.8 81C428.7 84.3 471.3 94.7 514.2 98.2C557 101.7 600 98.3 642.8 101C685.7 103.7 728.3 112.3 771.2 111.5C814 110.7 857 100.3 878.5 95.2L900 90L900 0L878.5 0C857 0 814 0 771.2 0C728.3 0 685.7 0 642.8 0C600 0 557 0 514.2 0C471.3 0 428.7 0 385.8 0C343 0 300 0 257.2 0C214.3 0 171.7 0 128.8 0C86 0 43 0 21.5 0L0 0Z" fill="#b24542"></path><path d="M0 73L21.5 75.3C43 77.7 86 82.3 128.8 86.5C171.7 90.7 214.3 94.3 257.2 89.8C300 85.3 343 72.7 385.8 72.5C428.7 72.3 471.3 84.7 514.2 91.5C557 98.3 600 99.7 642.8 99.5C685.7 99.3 728.3 97.7 771.2 94.7C814 91.7 857 87.3 878.5 85.2L900 83L900 0L878.5 0C857 0 814 0 771.2 0C728.3 0 685.7 0 642.8 0C600 0 557 0 514.2 0C471.3 0 428.7 0 385.8 0C343 0 300 0 257.2 0C214.3 0 171.7 0 128.8 0C86 0 43 0 21.5 0L0 0Z" fill="#c55846"></path><path d="M0 65L21.5 67.3C43 69.7 86 74.3 128.8 72.3C171.7 70.3 214.3 61.7 257.2 56.7C300 51.7 343 50.3 385.8 51.3C428.7 52.3 471.3 55.7 514.2 55.2C557 54.7 600 50.3 642.8 51.7C685.7 53 728.3 60 771.2 59.8C814 59.7 857 52.3 878.5 48.7L900 45L900 0L878.5 0C857 0 814 0 771.2 0C728.3 0 685.7 0 642.8 0C600 0 557 0 514.2 0C471.3 0 428.7 0 385.8 0C343 0 300 0 257.2 0C214.3 0 171.7 0 128.8 0C86 0 43 0 21.5 0L0 0Z" fill="#d76b49"></path><path d="M0 30L21.5 32.5C43 35 86 40 128.8 44C171.7 48 214.3 51 257.2 52.8C300 54.7 343 55.3 385.8 52C428.7 48.7 471.3 41.3 514.2 40.5C557 39.7 600 45.3 642.8 46C685.7 46.7 728.3 42.3 771.2 38.7C814 35 857 32 878.5 30.5L900 29L900 0L878.5 0C857 0 814 0 771.2 0C728.3 0 685.7 0 642.8 0C600 0 557 0 514.2 0C471.3 0 428.7 0 385.8 0C343 0 300 0 257.2 0C214.3 0 171.7 0 128.8 0C86 0 43 0 21.5 0L0 0Z" fill="#e8804c"></path><path d="M0 29L21.5 29.8C43 30.7 86 32.3 128.8 30.3C171.7 28.3 214.3 22.7 257.2 22C300 21.3 343 25.7 385.8 27.3C428.7 29 471.3 28 514.2 25.5C557 23 600 19 642.8 18.7C685.7 18.3 728.3 21.7 771.2 22.5C814 23.3 857 21.7 878.5 20.8L900 20L900 0L878.5 0C857 0 814 0 771.2 0C728.3 0 685.7 0 642.8 0C600 0 557 0 514.2 0C471.3 0 428.7 0 385.8 0C343 0 300 0 257.2 0C214.3 0 171.7 0 128.8 0C86 0 43 0 21.5 0L0 0Z" fill="#f7954f"></path></svg>