<svg id="visual" viewBox="0 0 900 300" width="900" height="300" xmlns="http://www.w3.org/2000/svg" xmlns:xlink="http://www.w3.org/1999/xlink" version="1.1"><path d="M0 175L129 221L257 180L386 197L514 210L643 194L771 216L900 208L900 301L771 301L643 301L514 301L386 301L257 301L129 301L0 301Z" fill="#a67829"></path><path d="M0 226L129 199L257 198L386 218L514 217L643 230L771 204L900 233L900 301L771 301L643 301L514 301L386 301L257 301L129 301L0 301Z" fill="#a05635"></path><path d="M0 236L129 224L257 222L386 245L514 246L643 250L771 228L900 229L900 301L771 301L643 301L514 301L386 301L257 301L129 301L0 301Z" fill="#893c41"></path><path d="M0 248L129 259L257 250L386 244L514 246L643 241L771 265L900 266L900 301L771 301L643 301L514 301L386 301L257 301L129 301L0 301Z" fill="#662c46"></path><path d="M0 266L129 272L257 267L386 270L514 286L643 275L771 267L900 277L900 301L771 301L643 301L514 301L386 301L257 301L129 301L0 301Z" fill="#3e223f"></path></svg>