<svg id="visual" viewBox="0 0 900 600" width="900" height="600" xmlns="http://www.w3.org/2000/svg" xmlns:xlink="http://www.w3.org/1999/xlink" version="1.1"><g stroke-width="1" stroke-linejoin="bevel"><path d="M416 264L425 171L371.5 210Z" fill="#a67829" stroke="#a67829"></path><path d="M416 264L548.5 225L425 171Z" fill="#813644" stroke="#813644"></path><path d="M371.5 210L298.5 297L416 264Z" fill="#14162a" stroke="#14162a"></path><path d="M422 68L315.5 112L425 171Z" fill="#14162a" stroke="#14162a"></path><path d="M425 171L315.5 112L371.5 210Z" fill="#92423e" stroke="#92423e"></path><path d="M371.5 210L199 203L298.5 297Z" fill="#14162a" stroke="#14162a"></path><path d="M579.5 87L422 68L425 171Z" fill="#552845" stroke="#552845"></path><path d="M298.5 297L415 382L416 264Z" fill="#a67829" stroke="#a67829"></path><path d="M416 264L572.5 361L548.5 225Z" fill="#6c2e46" stroke="#6c2e46"></path><path d="M298.5 297L300.5 385L415 382Z" fill="#813644" stroke="#813644"></path><path d="M548.5 225L579.5 87L425 171Z" fill="#6c2e46" stroke="#6c2e46"></path><path d="M415 382L572.5 361L416 264Z" fill="#813644" stroke="#813644"></path><path d="M548.5 225L698 172L579.5 87Z" fill="#6c2e46" stroke="#6c2e46"></path><path d="M572.5 361L599.5 332L548.5 225Z" fill="#9e5237" stroke="#9e5237"></path><path d="M315.5 112L199 203L371.5 210Z" fill="#6c2e46" stroke="#6c2e46"></path><path d="M298.5 297L211 414L300.5 385Z" fill="#3e223f" stroke="#3e223f"></path><path d="M199 203L204 273L298.5 297Z" fill="#9e5237" stroke="#9e5237"></path><path d="M542.5 0L460 0L422 68Z" fill="#271c36" stroke="#271c36"></path><path d="M422 68L306.5 0L315.5 112Z" fill="#a67829" stroke="#a67829"></path><path d="M315.5 112L204 127L199 203Z" fill="#552845" stroke="#552845"></path><path d="M306.5 0L204 127L315.5 112Z" fill="#6c2e46" stroke="#6c2e46"></path><path d="M460 0L306.5 0L422 68Z" fill="#6c2e46" stroke="#6c2e46"></path><path d="M579.5 87L542.5 0L422 68Z" fill="#552845" stroke="#552845"></path><path d="M300.5 385L347.5 460L415 382Z" fill="#552845" stroke="#552845"></path><path d="M415 382L523.5 500L572.5 361Z" fill="#3e223f" stroke="#3e223f"></path><path d="M206 475L347.5 460L300.5 385Z" fill="#92423e" stroke="#92423e"></path><path d="M204 127L146.5 208L199 203Z" fill="#a5642f" stroke="#a5642f"></path><path d="M199 203L146.5 208L204 273Z" fill="#14162a" stroke="#14162a"></path><path d="M204 273L211 414L298.5 297Z" fill="#813644" stroke="#813644"></path><path d="M699 309L698 172L548.5 225Z" fill="#6c2e46" stroke="#6c2e46"></path><path d="M579.5 87L662 0L542.5 0Z" fill="#6c2e46" stroke="#6c2e46"></path><path d="M698 172L668 81L579.5 87Z" fill="#271c36" stroke="#271c36"></path><path d="M137.5 283L211 414L204 273Z" fill="#3e223f" stroke="#3e223f"></path><path d="M146.5 208L137.5 283L204 273Z" fill="#552845" stroke="#552845"></path><path d="M572.5 361L661 384L599.5 332Z" fill="#a67829" stroke="#a67829"></path><path d="M599.5 332L699 309L548.5 225Z" fill="#a67829" stroke="#a67829"></path><path d="M637 508L661 384L572.5 361Z" fill="#a67829" stroke="#a67829"></path><path d="M661 384L699 309L599.5 332Z" fill="#a67829" stroke="#a67829"></path><path d="M414 538L523.5 500L415 382Z" fill="#000a1c" stroke="#000a1c"></path><path d="M204 127L139.5 81L146.5 208Z" fill="#000a1c" stroke="#000a1c"></path><path d="M146.5 208L0 226L137.5 283Z" fill="#552845" stroke="#552845"></path><path d="M185 0L139.5 81L204 127Z" fill="#92423e" stroke="#92423e"></path><path d="M306.5 0L185 0L204 127Z" fill="#3e223f" stroke="#3e223f"></path><path d="M319.5 600L414 538L347.5 460Z" fill="#a5642f" stroke="#a5642f"></path><path d="M347.5 460L414 538L415 382Z" fill="#a5642f" stroke="#a5642f"></path><path d="M755.5 0L662 0L668 81Z" fill="#a5642f" stroke="#a5642f"></path><path d="M668 81L662 0L579.5 87Z" fill="#6c2e46" stroke="#6c2e46"></path><path d="M211 414L206 475L300.5 385Z" fill="#9e5237" stroke="#9e5237"></path><path d="M117.5 397L206 475L211 414Z" fill="#6c2e46" stroke="#6c2e46"></path><path d="M774.5 289L751.5 230L699 309Z" fill="#552845" stroke="#552845"></path><path d="M699 309L751.5 230L698 172Z" fill="#a67829" stroke="#a67829"></path><path d="M698 172L786.5 131L668 81Z" fill="#a5642f" stroke="#a5642f"></path><path d="M0 318L117.5 397L137.5 283Z" fill="#000a1c" stroke="#000a1c"></path><path d="M137.5 283L117.5 397L211 414Z" fill="#a5642f" stroke="#a5642f"></path><path d="M818.5 400L699 309L661 384Z" fill="#271c36" stroke="#271c36"></path><path d="M818.5 400L774.5 289L699 309Z" fill="#14162a" stroke="#14162a"></path><path d="M751.5 230L786.5 131L698 172Z" fill="#a5642f" stroke="#a5642f"></path><path d="M530.5 600L637 508L523.5 500Z" fill="#a67829" stroke="#a67829"></path><path d="M523.5 500L637 508L572.5 361Z" fill="#6c2e46" stroke="#6c2e46"></path><path d="M900 196L786.5 131L751.5 230Z" fill="#9e5237" stroke="#9e5237"></path><path d="M414 538L489 600L523.5 500Z" fill="#000a1c" stroke="#000a1c"></path><path d="M319.5 600L489 600L414 538Z" fill="#14162a" stroke="#14162a"></path><path d="M256 600L347.5 460L206 475Z" fill="#9e5237" stroke="#9e5237"></path><path d="M256 600L319.5 600L347.5 460Z" fill="#271c36" stroke="#271c36"></path><path d="M185 0L87.5 0L139.5 81Z" fill="#813644" stroke="#813644"></path><path d="M0 124L0 226L146.5 208Z" fill="#6c2e46" stroke="#6c2e46"></path><path d="M489 600L530.5 600L523.5 500Z" fill="#271c36" stroke="#271c36"></path><path d="M786.5 131L755.5 0L668 81Z" fill="#552845" stroke="#552845"></path><path d="M149.5 600L256 600L206 475Z" fill="#813644" stroke="#813644"></path><path d="M0 124L146.5 208L139.5 81Z" fill="#a67829" stroke="#a67829"></path><path d="M117.5 397L106.5 524L206 475Z" fill="#552845" stroke="#552845"></path><path d="M87.5 0L0 124L139.5 81Z" fill="#9e5237" stroke="#9e5237"></path><path d="M0 226L0 318L137.5 283Z" fill="#14162a" stroke="#14162a"></path><path d="M0 411L106.5 524L117.5 397Z" fill="#a67829" stroke="#a67829"></path><path d="M783.5 506L818.5 400L661 384Z" fill="#9e5237" stroke="#9e5237"></path><path d="M774.5 289L900 196L751.5 230Z" fill="#271c36" stroke="#271c36"></path><path d="M783.5 506L661 384L637 508Z" fill="#3e223f" stroke="#3e223f"></path><path d="M530.5 600L647 600L637 508Z" fill="#9e5237" stroke="#9e5237"></path><path d="M0 318L0 411L117.5 397Z" fill="#3e223f" stroke="#3e223f"></path><path d="M647 600L783.5 506L637 508Z" fill="#9e5237" stroke="#9e5237"></path><path d="M106.5 524L149.5 600L206 475Z" fill="#9e5237" stroke="#9e5237"></path><path d="M0 600L149.5 600L106.5 524Z" fill="#813644" stroke="#813644"></path><path d="M87.5 0L0 0L0 124Z" fill="#a5642f" stroke="#a5642f"></path><path d="M900 299L900 196L774.5 289Z" fill="#3e223f" stroke="#3e223f"></path><path d="M786.5 131L900 92L755.5 0Z" fill="#552845" stroke="#552845"></path><path d="M900 299L774.5 289L818.5 400Z" fill="#6c2e46" stroke="#6c2e46"></path><path d="M900 385L900 299L818.5 400Z" fill="#6c2e46" stroke="#6c2e46"></path><path d="M900 196L900 92L786.5 131Z" fill="#813644" stroke="#813644"></path><path d="M900 525L900 385L818.5 400Z" fill="#552845" stroke="#552845"></path><path d="M0 411L0 527L106.5 524Z" fill="#92423e" stroke="#92423e"></path><path d="M900 92L900 0L755.5 0Z" fill="#14162a" stroke="#14162a"></path><path d="M647 600L789.5 600L783.5 506Z" fill="#3e223f" stroke="#3e223f"></path><path d="M783.5 506L900 525L818.5 400Z" fill="#000a1c" stroke="#000a1c"></path><path d="M0 527L0 600L106.5 524Z" fill="#92423e" stroke="#92423e"></path><path d="M789.5 600L900 525L783.5 506Z" fill="#a5642f" stroke="#a5642f"></path><path d="M789.5 600L900 600L900 525Z" fill="#a67829" stroke="#a67829"></path></g></svg>