<svg id="visual" viewBox="0 0 900 360" width="900" height="360" xmlns="http://www.w3.org/2000/svg" xmlns:xlink="http://www.w3.org/1999/xlink" version="1.1"><path d="M0 238L21.5 236.3C43 234.7 86 231.3 128.8 227.7C171.7 224 214.3 220 257.2 222.7C300 225.3 343 234.7 385.8 241.3C428.7 248 471.3 252 514.2 254.8C557 257.7 600 259.3 642.8 257.2C685.7 255 728.3 249 771.2 243.5C814 238 857 233 878.5 230.5L900 228L900 361L878.5 361C857 361 814 361 771.2 361C728.3 361 685.7 361 642.8 361C600 361 557 361 514.2 361C471.3 361 428.7 361 385.8 361C343 361 300 361 257.2 361C214.3 361 171.7 361 128.8 361C86 361 43 361 21.5 361L0 361Z" fill="#a67829"></path><path d="M0 281L21.5 277.7C43 274.3 86 267.7 128.8 266.8C171.7 266 214.3 271 257.2 270.7C300 270.3 343 264.7 385.8 262.3C428.7 260 471.3 261 514.2 261.7C557 262.3 600 262.7 642.8 264C685.7 265.3 728.3 267.7 771.2 265C814 262.3 857 254.7 878.5 250.8L900 247L900 361L878.5 361C857 361 814 361 771.2 361C728.3 361 685.7 361 642.8 361C600 361 557 361 514.2 361C471.3 361 428.7 361 385.8 361C343 361 300 361 257.2 361C214.3 361 171.7 361 128.8 361C86 361 43 361 21.5 361L0 361Z" fill="#a05635"></path><path d="M0 304L21.5 302C43 300 86 296 128.8 293.7C171.7 291.3 214.3 290.7 257.2 291C300 291.3 343 292.7 385.8 289.7C428.7 286.7 471.3 279.3 514.2 280.2C557 281 600 290 642.8 293.3C685.7 296.7 728.3 294.3 771.2 292.7C814 291 857 290 878.5 289.5L900 289L900 361L878.5 361C857 361 814 361 771.2 361C728.3 361 685.7 361 642.8 361C600 361 557 361 514.2 361C471.3 361 428.7 361 385.8 361C343 361 300 361 257.2 361C214.3 361 171.7 361 128.8 361C86 361 43 361 21.5 361L0 361Z" fill="#893c41"></path><path d="M0 310L21.5 312C43 314 86 318 128.8 315.2C171.7 312.3 214.3 302.7 257.2 297C300 291.3 343 289.7 385.8 289.5C428.7 289.3 471.3 290.7 514.2 290.7C557 290.7 600 289.3 642.8 289.3C685.7 289.3 728.3 290.7 771.2 294.5C814 298.3 857 304.7 878.5 307.8L900 311L900 361L878.5 361C857 361 814 361 771.2 361C728.3 361 685.7 361 642.8 361C600 361 557 361 514.2 361C471.3 361 428.7 361 385.8 361C343 361 300 361 257.2 361C214.3 361 171.7 361 128.8 361C86 361 43 361 21.5 361L0 361Z" fill="#662c46"></path><path d="M0 344L21.5 343C43 342 86 340 128.8 336.7C171.7 333.3 214.3 328.7 257.2 326.8C300 325 343 326 385.8 328.3C428.7 330.7 471.3 334.3 514.2 333.8C557 333.3 600 328.7 642.8 326.8C685.7 325 728.3 326 771.2 329C814 332 857 337 878.5 339.5L900 342L900 361L878.5 361C857 361 814 361 771.2 361C728.3 361 685.7 361 642.8 361C600 361 557 361 514.2 361C471.3 361 428.7 361 385.8 361C343 361 300 361 257.2 361C214.3 361 171.7 361 128.8 361C86 361 43 361 21.5 361L0 361Z" fill="#3e223f"></path></svg>