<svg id="visual" viewBox="0 0 900 600" width="900" height="600" xmlns="http://www.w3.org/2000/svg" xmlns:xlink="http://www.w3.org/1999/xlink" version="1.1"><path d="M0 119L21.5 131.5C43 144 86 169 128.8 186C171.7 203 214.3 212 257.2 198.2C300 184.3 343 147.7 385.8 138.3C428.7 129 471.3 147 514.2 159C557 171 600 177 642.8 174.7C685.7 172.3 728.3 161.7 771.2 143.7C814 125.7 857 100.3 878.5 87.7L900 75L900 0L878.5 0C857 0 814 0 771.2 0C728.3 0 685.7 0 642.8 0C600 0 557 0 514.2 0C471.3 0 428.7 0 385.8 0C343 0 300 0 257.2 0C214.3 0 171.7 0 128.8 0C86 0 43 0 21.5 0L0 0Z" fill="#f2b15c" stroke-linecap="round" stroke-linejoin="miter"></path></svg>