<svg id="visual" viewBox="0 0 900 300" width="900" height="300" xmlns="http://www.w3.org/2000/svg" xmlns:xlink="http://www.w3.org/1999/xlink" version="1.1"><path d="M0 96L21.5 96.3C43 96.7 86 97.3 128.8 92C171.7 86.7 214.3 75.3 257.2 67.3C300 59.3 343 54.7 385.8 58.2C428.7 61.7 471.3 73.3 514.2 72.3C557 71.3 600 57.7 642.8 58C685.7 58.3 728.3 72.7 771.2 74.2C814 75.7 857 64.3 878.5 58.7L900 53L900 0L878.5 0C857 0 814 0 771.2 0C728.3 0 685.7 0 642.8 0C600 0 557 0 514.2 0C471.3 0 428.7 0 385.8 0C343 0 300 0 257.2 0C214.3 0 171.7 0 128.8 0C86 0 43 0 21.5 0L0 0Z" fill="#3e223f" stroke-linecap="round" stroke-linejoin="miter"></path></svg>